#!OML:ASF F:\VICON\USERDATA\INSTALL\rory3\rory3.ASF
:FULLY-SPECIFIED
:DEGREES
619
root 4.26422 16.8993 7.14171 6.71867 -4.18864 -6.70173
lowerback 5.34238 -1.65883 1.17939
upperback -2.63663 -1.98993 2.63437
thorax -5.68554 -0.976389 2.28186
lowerneck -5.43321 -12.7443 -12.8884
upperneck 14.248 -17.3432 8.60792
head 7.12938 -8.52376 3.18897
rclavicle 8.62228e-015 -2.00773e-014
rhumerus -43.4801 11.2388 -79.1941
rradius 66.7557
rwrist 8.77282
rhand -25.8704 -52.4391
rfingers 7.12502
rthumb 0.67092 -82.4178
lclavicle 8.62228e-015 -2.00773e-014
lhumerus -40.3773 -23.7788 72.4634
lradius 75.1407
lwrist -8.625
lhand -32.1314 -47.5215
lfingers 7.12502
lthumb -5.37558 -17.6097
rfemur -95.5211 4.72948 17.3771
rtibia 127.682
rfoot -6.62805 -9.9475
rtoes -5.67906
lfemur -25.3278 3.21755 -20.8007
ltibia 44.7662
lfoot -19.1888 5.92073
ltoes -5.70364
620
root 4.25421 17.0667 7.16011 6.76441 -4.09283 -7.02469
lowerback 5.10343 -1.77491 1.48052
upperback -2.66545 -2.12176 2.77617
thorax -5.5818 -1.05085 2.26566
lowerneck -5.72322 -12.6682 -12.9918
upperneck 14.5259 -17.214 8.59366
head 7.2631 -8.45664 3.19079
rclavicle -7.66315e-014 1.74931e-014
rhumerus -43.4427 11.7019 -79.2244
rradius 66.4123
rwrist 9.13639
rhand -26.3461 -52.3861
rfingers 7.12502
rthumb 0.211494 -82.3657
lclavicle -7.66315e-014 1.74931e-014
lhumerus -40.4075 -23.8946 72.1451
lradius 75.4465
lwrist -8.77916
lhand -32.3415 -47.5336
lfingers 7.12502
lthumb -5.57842 -17.627
rfemur -95.4482 4.12954 17.6707
rtibia 127.909
rfoot -6.75828 -9.62615
rtoes -5.15343
lfemur -23.8113 2.43203 -20.2675
ltibia 42.0813
lfoot -17.4614 6.0574
ltoes -6.83406
621
root 4.23914 17.2526 7.1743 6.83952 -4.1081 -7.48029
lowerback 4.92964 -1.83185 1.82614
upperback -2.73227 -2.16829 2.94262
thorax -5.55897 -1.08382 2.24542
lowerneck -6.02761 -12.637 -12.935
upperneck 14.9185 -17.1462 8.4308
head 7.41576 -8.4204 3.11312
rclavicle 3.50234e-014 -1.21259e-014
rhumerus -43.4059 12.0586 -79.3144
rradius 65.935
rwrist 9.37445
rhand -26.4962 -52.5675
rfingers 7.12502
rthumb 0.0664891 -82.5472
lclavicle 3.50234e-014 -1.21259e-014
lhumerus -40.5727 -24.0707 71.9133
lradius 75.7538
lwrist -9.06705
lhand -32.7656 -47.3227
lfingers 7.12502
lthumb -5.98789 -17.4273
rfemur -95.3678 3.86343 18.1494
rtibia 128.092
rfoot -6.95986 -9.51067
rtoes -4.92408
lfemur -22.2465 1.72749 -19.5564
ltibia 39.1821
lfoot -15.5082 6.09397
ltoes -7.7605
622
root 4.21503 17.446 7.18762 7.02912 -4.15728 -7.90662
lowerback 4.62455 -1.88157 1.98866
upperback -2.91379 -2.21933 3.14898
thorax -5.57311 -1.11168 2.36803
lowerneck -5.9984 -12.6006 -12.9838
upperneck 15.0969 -17.0896 8.31357
head 7.45653 -8.40487 3.08892
rclavicle 8.68441e-015 -8.15017e-015
rhumerus -43.4976 12.4543 -79.4162
rradius 65.4801
rwrist 9.06851
rhand -26.17 -53.4719
rfingers 7.12502
rthumb 0.381586 -83.4513
lclavicle 8.68441e-015 -8.15017e-015
lhumerus -40.99 -24.2772 71.887
lradius 76.11
lwrist -9.09805
lhand -32.8317 -46.0926
lfingers 7.12502
lthumb -6.05175 -16.199
rfemur -95.5676 3.64395 18.6479
rtibia 128.339
rfoot -6.78199 -9.19862
rtoes -4.78958
lfemur -20.7147 1.11651 -18.8307
ltibia 36.0672
lfoot -13.1506 5.9018
ltoes -8.71628
623
root 4.1938 17.6446 7.20304 7.21689 -4.20794 -8.16212
lowerback 4.31068 -1.94165 2.07144
upperback -3.13073 -2.29383 3.27325
thorax -5.61866 -1.14975 2.45248
lowerneck -5.72412 -12.5116 -13.1084
upperneck 15.2096 -16.9959 8.30082
head 7.4458 -8.37739 3.13041
rclavicle 9.59136e-015 1.55052e-014
rhumerus -43.6828 12.7681 -79.4995
rradius 64.8532
rwrist 8.97514
rhand -25.898 -53.6766
rfingers 7.12502
rthumb 0.644219 -83.6554
lclavicle 9.59136e-015 1.55052e-014
lhumerus -41.47 -24.6017 71.9586
lradius 76.3614
lwrist -8.93758
lhand -32.7102 -45.4977
lfingers 7.12502
lthumb -5.93441 -15.6008
rfemur -95.7034 3.31763 18.9608
rtibia 128.624
rfoot -6.3729 -8.76559
rtoes -5.20843
lfemur -19.0724 0.49395 -18.3007
ltibia 32.7742
lfoot -10.4412 5.49653
ltoes -9.68914
624
root 4.18052 17.849 7.22457 7.26901 -4.26938 -8.17339
lowerback 4.01795 -1.98701 2.12549
upperback -3.23188 -2.36181 3.23634
thorax -5.55952 -1.18687 2.38049
lowerneck -5.64108 -12.4755 -13.1377
upperneck 15.3431 -16.9667 8.30003
head 7.47438 -8.36815 3.14091
rclavicle -5.10628e-014 2.04748e-014
rhumerus -43.8451 12.7873 -79.5812
rradius 64.0144
rwrist 9.41832
rhand -24.8183 -52.8475
rfingers 7.12502
rthumb 1.68708 -82.8205
lclavicle -5.10628e-014 2.04748e-014
lhumerus -41.7499 -25.0305 71.9988
lradius 76.4343
lwrist -8.7489
lhand -32.7752 -45.9912
lfingers 7.12502
lthumb -5.99714 -16.0961
rfemur -95.4978 2.84382 19.0056
rtibia 128.976
rfoot -6.4232 -8.43218
rtoes -6.64412
lfemur -17.2081 -0.198027 -18.0807
ltibia 29.3638
lfoot -7.49272 5.00499
ltoes -11.6709
625
root 4.16683 18.0579 7.24367 7.28488 -4.28887 -8.13055
lowerback 3.83081 -2.03866 2.09927
upperback -3.29227 -2.43931 3.22368
thorax -5.51346 -1.22494 2.38236
lowerneck -5.93791 -12.4715 -13.1492
upperneck 15.6864 -16.9374 8.21334
head 7.62839 -8.34986 3.09288
rclavicle -2.1447e-014 -2.50469e-014
rhumerus -43.8955 12.6275 -79.5493
rradius 63.1212
rwrist 9.56396
rhand -24.6504 -50.0548
rfingers 7.12502
rthumb 1.84926 -80.0266
lclavicle -2.1447e-014 -2.50469e-014
lhumerus -42.0624 -25.3064 72.1538
lradius 76.5446
lwrist -8.44113
lhand -32.8092 -46.6271
lfingers 7.12502
lthumb -6.02998 -16.733
rfemur -95.2528 2.30651 18.9951
rtibia 129.385
rfoot -6.63564 -7.99784
rtoes -7.19045
lfemur -15.338 -0.923877 -17.9042
ltibia 25.875
lfoot -4.10352 4.33948
ltoes -14.8802
626
root 4.15107 18.2725 7.25601 7.42898 -4.22062 -7.99872
lowerback 3.71039 -2.11473 1.90316
upperback -3.49525 -2.55039 3.25855
thorax -5.64498 -1.27149 2.53986
lowerneck -6.33849 -12.4428 -13.2433
upperneck 16.2773 -16.8582 8.05742
head 7.87896 -8.31341 3.02972
rclavicle 3.44705e-014 -3.73715e-014
rhumerus -44.0746 12.5118 -79.4477
rradius 62.4324
rwrist 9.35182
rhand -25.1016 -48.4984
rfingers 7.12502
rthumb 1.41348 -78.4734
lclavicle 3.44705e-014 -3.73715e-014
lhumerus -42.7007 -25.4763 72.52
lradius 76.7457
lwrist -8.0725
lhand -32.9601 -46.4146
lfingers 7.12502
lthumb -6.17571 -16.5246
rfemur -95.2449 1.63684 18.9062
rtibia 129.804
rfoot -6.62144 -7.28491
rtoes -6.59447
lfemur -13.7214 -1.54777 -17.7936
ltibia 22.3086
lfoot -0.274523 3.44317
ltoes -16.7971
627
root 4.13505 18.4831 7.26697 7.61879 -4.18796 -7.84992
lowerback 3.52407 -2.15273 1.7287
upperback -3.70835 -2.61298 3.2571
thorax -5.75283 -1.29523 2.64052
lowerneck -6.477 -12.4201 -13.3429
upperneck 16.616 -16.8106 7.97298
head 8.01196 -8.29749 3.00769
rclavicle 8.47475e-015 -2.08724e-014
rhumerus -44.2458 12.3385 -79.3856
rradius 61.7556
rwrist 9.30596
rhand -25.1484 -49.971
rfingers 7.12502
rthumb 1.36827 -79.9464
lclavicle 8.47475e-015 -2.08724e-014
lhumerus -43.1611 -25.8263 72.881
lradius 76.7656
lwrist -7.52388
lhand -33.2024 -45.7745
lfingers 7.12502
lthumb -6.40958 -15.8915
rfemur -95.3031 1.0004 18.8623
rtibia 130.228
rfoot -6.73969 -6.67054
rtoes -6.18763
lfemur -12.1885 -1.96723 -17.7141
ltibia 18.6679
lfoot 3.92274 2.7551
ltoes -18.1249
628
root 4.11327 18.6886 7.26884 7.92819 -4.17225 -7.94542
lowerback 3.31499 -2.16287 1.76268
upperback -3.89991 -2.62468 3.29385
thorax -5.83458 -1.30154 2.65841
lowerneck -6.50396 -12.4173 -13.356
upperneck 16.7062 -16.8069 7.95404
head 8.04579 -8.2971 3.0005
rclavicle 1.30732e-014 -3.43897e-014
rhumerus -44.2764 11.942 -79.3237
rradius 60.8312
rwrist 9.26716
rhand -23.8639 -51.5752
rfingers 7.12502
rthumb 2.60883 -81.539
lclavicle 1.30732e-014 -3.43897e-014
lhumerus -43.291 -26.2975 73.1495
lradius 76.5546
lwrist -6.79173
lhand -33.3714 -45.7188
lfingers 7.12502
lthumb -6.57279 -15.8408
rfemur -95.5455 0.610861 19.2143
rtibia 130.635
rfoot -6.7087 -6.35267
rtoes -6.03561
lfemur -10.7888 -2.342 -17.3395
ltibia 14.8785
lfoot 8.67236 2.39856
ltoes -19.8331
629
root 4.09031 18.8936 7.2641 8.40864 -4.09939 -8.06209
lowerback 3.80331 -2.18655 1.68885
upperback -4.67047 -2.60884 3.46428
thorax -6.92438 -1.27853 2.93496
lowerneck -6.37707 -12.3678 -13.4284
upperneck 17.3493 -16.7141 7.50461
head 8.1947 -8.2968 2.87532
rclavicle -1.27315e-014 -7.35503e-015
rhumerus -45.303 11.7974 -79.237
rradius 60.1474
rwrist 9.06946
rhand -22.9524 -51.4816
rfingers 7.12502
rthumb 3.48903 -81.4327
lclavicle -1.27315e-014 -7.35503e-015
lhumerus -44.467 -26.7033 74.0706
lradius 76.443
lwrist -6.21289
lhand -33.595 -45.76
lfingers 7.12502
lthumb -6.78866 -15.8888
rfemur -96.1091 0.214364 19.6365
rtibia 131.086
rfoot -6.468 -5.98336
rtoes -5.25518
lfemur -9.44319 -2.93429 -16.8619
ltibia 10.6335
lfoot 14.0909 2.46858
ltoes -20.1174
630
root 4.0731 19.0948 7.26845 8.83831 -3.89535 -8.08372
lowerback 3.59779 -2.24748 1.72398
upperback -5.04026 -2.68011 3.53719
thorax -7.1969 -1.3116 3.00528
lowerneck -6.6271 -12.3617 -13.3901
upperneck 17.9452 -16.6438 7.09174
head 8.39151 -8.28595 2.71922
rclavicle 3.54209e-014 -8.74653e-015
rhumerus -45.7935 11.5787 -79.157
rradius 59.5758
rwrist 8.65237
rhand -23.0715 -50.4473
rfingers 7.12502
rthumb 3.37408 -80.4003
lclavicle 3.54209e-014 -8.74653e-015
lhumerus -45.1273 -26.9695 74.7181
lradius 76.318
lwrist -5.59656
lhand -33.7712 -45.5214
lfingers 7.12502
lthumb -6.95869 -15.6558
rfemur -96.4239 -0.484277 19.9603
rtibia 131.612
rfoot -6.45922 -5.59072
rtoes -5.03168
lfemur -7.32104 -2.95017 -16.5069
ltibia 5.02079
lfoot 20.001 2.34657
ltoes -18.8557
631
root 4.0639 19.2927 7.29912 9.14504 -3.55204 -8.14622
lowerback 2.85122 -2.39705 2.08088
upperback -5.05272 -2.88774 3.53041
thorax -6.78866 -1.43707 2.77788
lowerneck -7.31777 -12.3882 -13.2574
upperneck 18.493 -16.5899 6.79519
head 8.6553 -8.25376 2.55711
rclavicle -5.27276e-014 1.5704e-014
rhumerus -45.7331 11.3842 -79.1678
rradius 58.9691
rwrist 8.05665
rhand -23.1351 -49.7675
rfingers 7.12502
rthumb 3.31266 -79.7215
lclavicle -5.27276e-014 1.5704e-014
lhumerus -45.2403 -27.1314 75.0014
lradius 75.9939
lwrist -4.9734
lhand -33.798 -45.2353
lfingers 7.12502
lthumb -6.98459 -15.3706
rfemur -96.1283 -1.41411 20.286
rtibia 132.164
rfoot -6.7972 -5.24272
rtoes -5.05554
lfemur -5.22678 -3.1036 -16.0271
ltibia 1.43125e-014
lfoot 25.0818 1.73377
ltoes -18.5613
632
root 4.0371 19.4739 7.2789 9.57039 -3.27685 -8.14395
lowerback 2.81254 -2.53313 2.14505
upperback -5.28697 -3.06088 3.52351
thorax -7.01572 -1.52537 2.75934
lowerneck -7.73818 -12.4348 -13.2423
upperneck 18.8279 -16.6179 6.73648
head 8.84101 -8.25706 2.49769
rclavicle 4.58105e-014 -1.72943e-014
rhumerus -45.7706 11.2113 -79.3096
rradius 58.3282
rwrist 7.67268
rhand -23.024 -50.027
rfingers 7.12502
rthumb 3.41989 -79.9794
lclavicle 4.58105e-014 -1.72943e-014
lhumerus -45.3621 -27.4179 75.2717
lradius 75.4655
lwrist -4.62279
lhand -34.1206 -44.812
lfingers 7.12502
lthumb -7.29598 -14.9578
rfemur -96.7632 -2.22979 20.8591
rtibia 132.722
rfoot -6.36155 -4.73247
rtoes -4.32462
lfemur -6.13888 -3.1689 -15.5711
ltibia -1.39149e-014
lfoot 27.3613 0.223131
ltoes -18.3821
633
root 4.01576 19.6454 7.2557 10.0625 -2.76954 -8.32666
lowerback 2.65057 -2.6805 2.57063
upperback -5.48462 -3.23122 3.54236
thorax -7.15356 -1.63194 2.5583
lowerneck -7.96461 -12.5573 -13.3362
upperneck 18.9758 -16.7652 6.77157
head 8.96022 -8.32102 2.48176
rclavicle -2.58575e-014 6.55989e-015
rhumerus -45.6922 10.8454 -79.3591
rradius 57.4699
rwrist 7.40785
rhand -23.3701 -49.829
rfingers 7.12502
rthumb 3.08564 -79.7864
lclavicle -2.58575e-014 6.55989e-015
lhumerus -45.4675 -27.8301 75.604
lradius 75.0044
lwrist -4.39247
lhand -34.5124 -44.4105
lfingers 7.12502
lthumb -7.67415 -14.5698
rfemur -97.3923 -3.1227 21.6557
rtibia 133.264
rfoot -6.02573 -4.35054
rtoes -4.23712
lfemur -7.04742 -3.42514 -14.9466
ltibia 9.54166e-015
lfoot 28.8232 -0.249525
ltoes -16.2278
